<svg width="289" height="36" viewBox="0 0 289 36" fill="none" xmlns="http://www.w3.org/2000/svg">
<path d="M15.9 21.9V17H25.65V34.4C24.75 34.6333 22.9167 34.8833 20.15 35.15C17.4167 35.4167 15.4333 35.55 14.2 35.55C9 35.55 5.41667 34.1167 3.45 31.25C1.48333 28.3833 0.5 23.9 0.5 17.8C0.5 11.6667 1.5 7.2 3.5 4.4C5.53333 1.6 9.03333 0.199998 14 0.199998C16.9333 0.199998 20.2333 0.533331 23.9 1.2L25.65 1.55L25.45 5.95C21.4167 5.41667 17.8 5.15 14.6 5.15C11.4 5.15 9.2 6.05 8 7.85C6.83333 9.65 6.25 12.9833 6.25 17.85C6.25 22.7167 6.8 26.0833 7.9 27.95C9.03333 29.7833 11.3 30.7 14.7 30.7C17.1333 30.7 18.95 30.55 20.15 30.25V21.9H15.9ZM29.6641 35L38.1141 0.749997H49.1641L57.6641 35H52.0641L50.2141 27.65H37.0641L35.2141 35H29.6641ZM42.4141 5.4L38.1641 22.75H49.1141L44.9141 5.4H42.4141ZM62.5457 35V0.749997H72.1957L79.8457 27.5L87.4957 0.749997H97.1957V35H91.5957V6.9H90.8457L82.7457 33.6H76.9457L68.8457 6.9H68.0957V35H62.5457ZM105.026 35V0.749997H126.626V5.6H110.576V15.3H123.626V20.1H110.576V30.1H126.626V35H105.026ZM143.649 35V0.749997H153.299L160.949 27.5L168.599 0.749997H178.299V35H172.699V6.9H171.949L163.849 33.6H158.049L149.949 6.9H149.199V35H143.649ZM183.18 35L191.63 0.749997H202.68L211.18 35H205.58L203.73 27.65H190.58L188.73 35H183.18ZM195.93 5.4L191.68 22.75H202.63L198.43 5.4H195.93ZM216.061 35V0.749997H225.761L236.161 30.1H236.911V0.749997H242.461V35H232.961L222.311 5.6H221.611V35H216.061ZM250.339 35V0.749997H255.889V35H250.339ZM260.816 35L269.266 0.749997H280.316L288.816 35H283.216L281.366 27.65H268.216L266.366 35H260.816ZM273.566 5.4L269.316 22.75H280.266L276.066 5.4H273.566Z" fill="white"/>
</svg>
