<svg width="166" height="48" viewBox="0 0 166 48" fill="none" xmlns="http://www.w3.org/2000/svg">
<rect width="166" height="48" rx="15" fill="#FF0000"/>
<path d="M12.1474 33V15.875H14.9224V33H12.1474ZM18.8612 33V15.875H23.7112L28.9112 30.55H29.2862V15.875H32.0612V33H27.3112L21.9862 18.3H21.6362V33H18.8612ZM41.0249 18.025C38.9082 18.025 37.8499 18.7667 37.8499 20.25C37.8499 21.0167 38.0999 21.5667 38.5999 21.9C39.0999 22.2167 40.1999 22.6167 41.8999 23.1C43.6166 23.5667 44.8249 24.1333 45.5249 24.8C46.2249 25.45 46.5749 26.4833 46.5749 27.9C46.5749 29.7 46.0582 31.05 45.0249 31.95C44.0082 32.8333 42.6166 33.275 40.8499 33.275C39.4332 33.275 37.8666 33.1083 36.1499 32.775L35.2499 32.6L35.5249 30.375C37.7749 30.675 39.4916 30.825 40.6749 30.825C42.7416 30.825 43.7749 29.9083 43.7749 28.075C43.7749 27.3583 43.5416 26.8333 43.0749 26.5C42.6082 26.15 41.5582 25.775 39.9249 25.375C38.2916 24.9583 37.0749 24.3917 36.2749 23.675C35.4749 22.9583 35.0749 21.825 35.0749 20.275C35.0749 18.725 35.5749 17.5583 36.5749 16.775C37.5916 15.975 38.9916 15.575 40.7749 15.575C42.0582 15.575 43.5749 15.725 45.3249 16.025L46.1999 16.175L45.9749 18.425C43.6416 18.1583 41.9916 18.025 41.0249 18.025ZM55.3241 33.275C52.8241 33.275 51.1241 32.5833 50.2241 31.2C49.3408 29.8167 48.8991 27.5417 48.8991 24.375C48.8991 21.2083 49.3491 18.9583 50.2491 17.625C51.1491 16.275 52.8408 15.6 55.3241 15.6C56.8075 15.6 58.4408 15.8083 60.2241 16.225L60.1241 18.475C58.6241 18.2083 57.1241 18.075 55.6241 18.075C54.1241 18.075 53.1075 18.525 52.5741 19.425C52.0408 20.3083 51.7741 21.9833 51.7741 24.45C51.7741 26.9 52.0325 28.575 52.5491 29.475C53.0658 30.3583 54.0741 30.8 55.5741 30.8C57.0741 30.8 58.5908 30.675 60.1241 30.425L60.1991 32.725C58.4825 33.0917 56.8575 33.275 55.3241 33.275ZM65.9478 26.9V33H63.1728V15.875H69.6728C73.5394 15.875 75.4728 17.6917 75.4728 21.325C75.4728 23.7583 74.5394 25.4083 72.6728 26.275L75.4978 33H72.4478L69.9728 26.9H65.9478ZM72.6228 21.35C72.6228 19.3 71.6394 18.275 69.6728 18.275H65.9478V24.5H69.7228C70.7228 24.5 71.4561 24.2167 71.9228 23.65C72.3894 23.0667 72.6228 22.3 72.6228 21.35ZM78.6269 33V15.875H89.4269V18.3H81.4019V23.15H87.9269V25.55H81.4019V30.55H89.4269V33H78.6269ZM101.92 15.875H104.82L100.62 33H95.1702L90.9702 15.875H93.8702L97.2702 30.55H98.5202L101.92 15.875ZM105.106 33L109.331 15.875H114.856L119.106 33H116.306L115.381 29.325H108.806L107.881 33H105.106ZM111.481 18.2L109.356 26.875H114.831L112.731 18.2H111.481ZM120.999 27.5V25.025H128.474V27.5H120.999ZM136.435 18.025C134.318 18.025 133.26 18.7667 133.26 20.25C133.26 21.0167 133.51 21.5667 134.01 21.9C134.51 22.2167 135.61 22.6167 137.31 23.1C139.027 23.5667 140.235 24.1333 140.935 24.8C141.635 25.45 141.985 26.4833 141.985 27.9C141.985 29.7 141.468 31.05 140.435 31.95C139.418 32.8333 138.027 33.275 136.26 33.275C134.843 33.275 133.277 33.1083 131.56 32.775L130.66 32.6L130.935 30.375C133.185 30.675 134.902 30.825 136.085 30.825C138.152 30.825 139.185 29.9083 139.185 28.075C139.185 27.3583 138.952 26.8333 138.485 26.5C138.018 26.15 136.968 25.775 135.335 25.375C133.702 24.9583 132.485 24.3917 131.685 23.675C130.885 22.9583 130.485 21.825 130.485 20.275C130.485 18.725 130.985 17.5583 131.985 16.775C133.002 15.975 134.402 15.575 136.185 15.575C137.468 15.575 138.985 15.725 140.735 16.025L141.61 16.175L141.385 18.425C139.052 18.1583 137.402 18.025 136.435 18.025ZM144.984 33V15.875H155.784V18.3H147.759V23.15H154.284V25.55H147.759V30.55H155.784V33H144.984Z" fill="black"/>
</svg>
