<svg width="298" height="48" viewBox="0 0 298 48" fill="none" xmlns="http://www.w3.org/2000/svg">
<rect width="298" height="48" rx="10" fill="#D0D0D0"/>
<path d="M23.6 18.36C22.2133 18.12 21.0067 18 19.98 18C18.9667 18 18.14 18.2733 17.5 18.82C16.8733 19.3667 16.56 20.16 16.56 21.2C16.56 21.7733 16.74 22.1867 17.1 22.44C17.46 22.6933 18.16 22.9933 19.2 23.34C20.2533 23.6867 20.9867 24.0667 21.4 24.48C21.8267 24.8933 22.04 25.5333 22.04 26.4C22.04 27.88 21.5933 29.0533 20.7 29.92C19.82 30.7733 18.6267 31.2 17.12 31.2C16.1067 31.2 14.9733 31.08 13.72 30.84L13.14 30.74L13.36 29.74C14.92 29.98 16.2333 30.1 17.3 30.1C18.3667 30.1 19.2133 29.78 19.84 29.14C20.4667 28.5 20.78 27.6133 20.78 26.48C20.78 25.88 20.6267 25.4533 20.32 25.2C20.0133 24.9333 19.34 24.6333 18.3 24.3C17.2733 23.9667 16.5133 23.5933 16.02 23.18C15.54 22.7667 15.3 22.1333 15.3 21.28C15.3 19.8933 15.7467 18.82 16.64 18.06C17.5333 17.2867 18.7267 16.9 20.22 16.9C21.26 16.9 22.2933 17.0267 23.32 17.28L23.82 17.42L23.6 18.36ZM25.08 28.18C25.08 28.78 25.26 29.2533 25.62 29.6C25.9933 29.9467 26.4467 30.12 26.98 30.12C28.0067 30.12 28.9867 30 29.92 29.76L30.4 29.62L30.32 30.6C29.16 31 28.0533 31.2 27 31.2C24.9067 31.2 23.86 30.2133 23.86 28.24C23.86 26.4267 24.2933 24.7667 25.16 23.26C25.5733 22.5267 26.1333 21.94 26.84 21.5C27.5467 21.0467 28.3467 20.82 29.24 20.82C31.12 20.82 32.06 21.58 32.06 23.1C32.06 24.2733 31.6067 25.1 30.7 25.58C29.7933 26.0467 28.3733 26.28 26.44 26.28H25.32C25.16 26.9467 25.08 27.58 25.08 28.18ZM26.68 25.3C28.1467 25.3 29.2067 25.1467 29.86 24.84C30.5267 24.52 30.86 23.94 30.86 23.1C30.86 22.26 30.3 21.84 29.18 21.84C27.4333 21.84 26.2067 22.9933 25.5 25.3H26.68ZM35.5002 31.2C34.7535 31.2 34.1735 30.98 33.7602 30.54C33.3602 30.1 33.1602 29.5333 33.1602 28.84C33.1602 28.1467 33.2935 27.24 33.5602 26.12L34.7602 21H35.9402L34.7602 26.04C34.5068 27.12 34.3802 27.9333 34.3802 28.48C34.3802 29.5733 34.8802 30.12 35.8802 30.12C36.3202 30.12 36.8202 29.9133 37.3802 29.5C37.9402 29.0867 38.3868 28.6733 38.7202 28.26L39.2402 27.64L40.7802 21H41.9802L39.6602 31H38.5002L38.9202 29.06C38.2535 29.9533 37.4668 30.5867 36.5602 30.96C36.1868 31.12 35.8335 31.2 35.5002 31.2ZM48.5175 28.18C48.5175 28.78 48.6975 29.2533 49.0575 29.6C49.4308 29.9467 49.8842 30.12 50.4175 30.12C51.4442 30.12 52.4242 30 53.3575 29.76L53.8375 29.62L53.7575 30.6C52.5975 31 51.4908 31.2 50.4375 31.2C48.3442 31.2 47.2975 30.2133 47.2975 28.24C47.2975 26.4267 47.7308 24.7667 48.5975 23.26C49.0108 22.5267 49.5708 21.94 50.2775 21.5C50.9842 21.0467 51.7842 20.82 52.6775 20.82C54.5575 20.82 55.4975 21.58 55.4975 23.1C55.4975 24.2733 55.0442 25.1 54.1375 25.58C53.2308 26.0467 51.8108 26.28 49.8775 26.28H48.7575C48.5975 26.9467 48.5175 27.58 48.5175 28.18ZM50.1175 25.3C51.5842 25.3 52.6442 25.1467 53.2975 24.84C53.9642 24.52 54.2975 23.94 54.2975 23.1C54.2975 22.26 53.7375 21.84 52.6175 21.84C50.8708 21.84 49.6442 22.9933 48.9375 25.3H50.1175ZM56.6605 26.2L56.9405 25.08H61.8605L61.5805 26.2H56.6605ZM70.4908 23.46C70.4908 22.4067 69.9974 21.88 69.0108 21.88C68.5708 21.88 68.0708 22.0867 67.5108 22.5C66.9508 22.9133 66.4974 23.3333 66.1508 23.76L65.6508 24.38L64.1108 31H62.9108L65.2308 21H66.3908L65.9908 22.94C66.6708 22.0333 67.4574 21.4 68.3508 21.04C68.7108 20.88 69.0708 20.8 69.4308 20.8C69.8041 20.8 70.1374 20.8667 70.4308 21C70.7241 21.12 70.9374 21.2733 71.0708 21.46C71.3641 21.8333 71.5441 22.24 71.6108 22.68C71.6774 22.6 71.8708 22.42 72.1908 22.14C72.5241 21.8467 72.8174 21.6133 73.0708 21.44C73.7241 21.0133 74.3974 20.8 75.0908 20.8C75.7841 20.8 76.3308 21.02 76.7308 21.46C77.1308 21.9 77.3308 22.4467 77.3308 23.1C77.3308 23.7533 77.1974 24.6933 76.9308 25.92L75.7508 31H74.5508L75.7308 25.96C75.9841 24.88 76.1108 24.0667 76.1108 23.52C76.1108 22.4267 75.6174 21.88 74.6308 21.88C74.2308 21.88 73.7774 22.0467 73.2708 22.38C72.7774 22.7 72.3841 23.0267 72.0908 23.36L71.6508 23.84C71.6241 24.4133 71.5108 25.1067 71.3108 25.92L70.1308 31H68.9308L70.1108 25.96C70.3641 24.88 70.4908 24.0467 70.4908 23.46ZM81.3591 31.2C79.6924 31.2 78.8591 30.26 78.8591 28.38C78.8591 26.6333 79.2791 24.9733 80.1191 23.4C80.5191 22.64 81.0457 22.02 81.6991 21.54C82.3657 21.0467 83.0924 20.8 83.8791 20.8C84.5991 20.8 85.6591 20.92 87.0591 21.16L87.7591 21.28L86.2391 27.78C86.0524 28.5267 85.8924 29.42 85.7591 30.46L85.6791 30.98L84.5191 31.02C84.7191 29.78 84.8457 29.02 84.8991 28.74C84.8457 28.8067 84.7724 28.9 84.6791 29.02C84.5991 29.1267 84.4257 29.32 84.1591 29.6C83.9057 29.88 83.6457 30.1267 83.3791 30.34C83.1124 30.5533 82.7924 30.7533 82.4191 30.94C82.0457 31.1133 81.6924 31.2 81.3591 31.2ZM86.3791 22.16C85.4191 21.96 84.5657 21.86 83.8191 21.86C83.0857 21.86 82.4191 22.2267 81.8191 22.96C81.2191 23.6933 80.7791 24.5467 80.4991 25.52C80.2324 26.48 80.0991 27.3467 80.0991 28.12C80.0991 28.88 80.2191 29.4067 80.4591 29.7C80.7124 29.9933 81.0857 30.14 81.5791 30.14C82.0724 30.14 82.6057 29.9067 83.1791 29.44C83.7524 28.9733 84.2257 28.5067 84.5991 28.04L85.1591 27.32L86.3791 22.16ZM88.2623 31L90.5823 21H91.7823L89.4623 31H88.2623ZM91.1023 18.68L91.4823 17.08H92.6823L92.3223 18.68H91.1023ZM92.3277 31L95.6677 16.56H96.8477L93.5077 31H92.3277Z" fill="black"/>
</svg>
