<svg width="211" height="48" viewBox="0 0 211 48" fill="none" xmlns="http://www.w3.org/2000/svg">
<rect width="211" height="48" rx="10" fill="#D0D0D0"/>
<path d="M16.6 18.36C15.2133 18.12 14.0067 18 12.98 18C11.9667 18 11.14 18.2733 10.5 18.82C9.87333 19.3667 9.56 20.16 9.56 21.2C9.56 21.7733 9.74 22.1867 10.1 22.44C10.46 22.6933 11.16 22.9933 12.2 23.34C13.2533 23.6867 13.9867 24.0667 14.4 24.48C14.8267 24.8933 15.04 25.5333 15.04 26.4C15.04 27.88 14.5933 29.0533 13.7 29.92C12.82 30.7733 11.6267 31.2 10.12 31.2C9.10667 31.2 7.97333 31.08 6.72 30.84L6.14 30.74L6.36 29.74C7.92 29.98 9.23333 30.1 10.3 30.1C11.3667 30.1 12.2133 29.78 12.84 29.14C13.4667 28.5 13.78 27.6133 13.78 26.48C13.78 25.88 13.6267 25.4533 13.32 25.2C13.0133 24.9333 12.34 24.6333 11.3 24.3C10.2733 23.9667 9.51333 23.5933 9.02 23.18C8.54 22.7667 8.3 22.1333 8.3 21.28C8.3 19.8933 8.74667 18.82 9.64 18.06C10.5333 17.2867 11.7267 16.9 13.22 16.9C14.26 16.9 15.2933 17.0267 16.32 17.28L16.82 17.42L16.6 18.36ZM18.08 28.18C18.08 28.78 18.26 29.2533 18.62 29.6C18.9933 29.9467 19.4467 30.12 19.98 30.12C21.0067 30.12 21.9867 30 22.92 29.76L23.4 29.62L23.32 30.6C22.16 31 21.0533 31.2 20 31.2C17.9067 31.2 16.86 30.2133 16.86 28.24C16.86 26.4267 17.2933 24.7667 18.16 23.26C18.5733 22.5267 19.1333 21.94 19.84 21.5C20.5467 21.0467 21.3467 20.82 22.24 20.82C24.12 20.82 25.06 21.58 25.06 23.1C25.06 24.2733 24.6067 25.1 23.7 25.58C22.7933 26.0467 21.3733 26.28 19.44 26.28H18.32C18.16 26.9467 18.08 27.58 18.08 28.18ZM19.68 25.3C21.1467 25.3 22.2067 25.1467 22.86 24.84C23.5267 24.52 23.86 23.94 23.86 23.1C23.86 22.26 23.3 21.84 22.18 21.84C20.4333 21.84 19.2067 22.9933 18.5 25.3H19.68ZM28.5002 31.2C27.7535 31.2 27.1735 30.98 26.7602 30.54C26.3602 30.1 26.1602 29.5333 26.1602 28.84C26.1602 28.1467 26.2935 27.24 26.5602 26.12L27.7602 21H28.9402L27.7602 26.04C27.5068 27.12 27.3802 27.9333 27.3802 28.48C27.3802 29.5733 27.8802 30.12 28.8802 30.12C29.3202 30.12 29.8202 29.9133 30.3802 29.5C30.9402 29.0867 31.3868 28.6733 31.7202 28.26L32.2402 27.64L33.7802 21H34.9802L32.6602 31H31.5002L31.9202 29.06C31.2535 29.9533 30.4668 30.5867 29.5602 30.96C29.1868 31.12 28.8335 31.2 28.5002 31.2ZM46.2775 20.8C47.0375 20.8 47.6175 21.02 48.0175 21.46C48.4175 21.9 48.6175 22.4667 48.6175 23.16C48.6175 23.8533 48.4842 24.76 48.2175 25.88L47.0175 31H45.8375L47.0175 25.96C47.2708 24.88 47.3975 24.0467 47.3975 23.46C47.3975 22.4067 46.8975 21.88 45.8975 21.88C45.4575 21.88 44.9575 22.0867 44.3975 22.5C43.8375 22.9133 43.3842 23.3333 43.0375 23.76L42.5375 24.38L40.9975 31H39.7975L42.1175 21H43.2775L42.8575 22.94C43.5242 22.0467 44.3175 21.4133 45.2375 21.04C45.5975 20.88 45.9442 20.8 46.2775 20.8ZM55.2203 20.82C57.4603 20.82 58.5803 21.92 58.5803 24.12C58.5803 26.0933 58.107 27.7667 57.1603 29.14C56.227 30.5133 55.0003 31.2 53.4803 31.2C51.2936 31.2 50.2003 30.1467 50.2003 28.04C50.2003 26.0533 50.6736 24.3533 51.6203 22.94C52.5803 21.5267 53.7803 20.82 55.2203 20.82ZM53.4803 30.14C54.627 30.14 55.5603 29.5533 56.2803 28.38C57.0003 27.1933 57.3603 25.7667 57.3603 24.1C57.3603 23.42 57.1803 22.88 56.8203 22.48C56.4603 22.0667 55.927 21.86 55.2203 21.86C54.1136 21.86 53.2003 22.4733 52.4803 23.7C51.7603 24.9267 51.4003 26.3733 51.4003 28.04C51.4003 29.44 52.0936 30.14 53.4803 30.14ZM67.1431 23.46C67.1431 22.4067 66.6498 21.88 65.6631 21.88C65.2231 21.88 64.7231 22.0867 64.1631 22.5C63.6031 22.9133 63.1498 23.3333 62.8031 23.76L62.3031 24.38L60.7631 31H59.5631L61.8831 21H63.0431L62.6431 22.94C63.3231 22.0333 64.1098 21.4 65.0031 21.04C65.3631 20.88 65.7231 20.8 66.0831 20.8C66.4565 20.8 66.7898 20.8667 67.0831 21C67.3765 21.12 67.5898 21.2733 67.7231 21.46C68.0165 21.8333 68.1965 22.24 68.2631 22.68C68.3298 22.6 68.5231 22.42 68.8431 22.14C69.1765 21.8467 69.4698 21.6133 69.7231 21.44C70.3765 21.0133 71.0498 20.8 71.7431 20.8C72.4365 20.8 72.9831 21.02 73.3831 21.46C73.7831 21.9 73.9831 22.4467 73.9831 23.1C73.9831 23.7533 73.8498 24.6933 73.5831 25.92L72.4031 31H71.2031L72.3831 25.96C72.6365 24.88 72.7631 24.0667 72.7631 23.52C72.7631 22.4267 72.2698 21.88 71.2831 21.88C70.8831 21.88 70.4298 22.0467 69.9231 22.38C69.4298 22.7 69.0365 23.0267 68.7431 23.36L68.3031 23.84C68.2765 24.4133 68.1631 25.1067 67.9631 25.92L66.7831 31H65.5831L66.7631 25.96C67.0165 24.88 67.1431 24.0467 67.1431 23.46ZM76.7714 28.18C76.7714 28.78 76.9514 29.2533 77.3114 29.6C77.6847 29.9467 78.1381 30.12 78.6714 30.12C79.6981 30.12 80.6781 30 81.6114 29.76L82.0914 29.62L82.0114 30.6C80.8514 31 79.7447 31.2 78.6914 31.2C76.5981 31.2 75.5514 30.2133 75.5514 28.24C75.5514 26.4267 75.9847 24.7667 76.8514 23.26C77.2647 22.5267 77.8247 21.94 78.5314 21.5C79.2381 21.0467 80.0381 20.82 80.9314 20.82C82.8114 20.82 83.7514 21.58 83.7514 23.1C83.7514 24.2733 83.2981 25.1 82.3914 25.58C81.4847 26.0467 80.0647 26.28 78.1314 26.28H77.0114C76.8514 26.9467 76.7714 27.58 76.7714 28.18ZM78.3714 25.3C79.8381 25.3 80.8981 25.1467 81.5514 24.84C82.2181 24.52 82.5514 23.94 82.5514 23.1C82.5514 22.26 81.9914 21.84 80.8714 21.84C79.1247 21.84 77.8981 22.9933 77.1914 25.3H78.3714Z" fill="black"/>
</svg>
