<svg width="520" height="29" viewBox="0 0 520 29" fill="none" xmlns="http://www.w3.org/2000/svg">
<path d="M0.892032 10.536L1.53603 7.82H13.912L13.268 10.536H8.62003L4.81203 27H1.70403L5.48403 10.536H0.892032ZM15.7349 20.84C15.7349 22.3147 15.9775 23.3133 16.4629 23.836C16.9482 24.34 17.7509 24.592 18.8709 24.592C19.9909 24.592 20.9429 24.2467 21.7269 23.556C22.7722 22.6227 23.5935 21.1947 24.1909 19.272C24.7882 17.3493 25.0869 15.4547 25.0869 13.588C25.0869 12.3933 24.8442 11.5347 24.3589 11.012C23.8735 10.4893 23.0709 10.228 21.9509 10.228C20.8495 10.228 19.9535 10.536 19.2629 11.152C18.1802 12.1413 17.3215 13.6347 16.6869 15.632C16.0522 17.6107 15.7349 19.3467 15.7349 20.84ZM23.7149 25.656C22.2962 26.7573 20.5789 27.308 18.5629 27.308C16.5469 27.308 15.0349 26.8413 14.0269 25.908C13.0189 24.9747 12.5149 23.5093 12.5149 21.512C12.5149 19.0853 12.8882 16.78 13.6349 14.596C14.4002 12.412 15.5015 10.6947 16.9389 9.444C18.3762 8.156 20.1309 7.512 22.2029 7.512C26.2722 7.512 28.3069 9.444 28.3069 13.308C28.3069 15.8467 27.9149 18.236 27.1309 20.476C26.3655 22.716 25.2269 24.4427 23.7149 25.656ZM35.6742 27H28.8702L33.3222 7.82H39.3982C43.3182 7.82 45.2782 9.74267 45.2782 13.588C45.2782 16.892 44.5128 19.888 42.9822 22.576C42.2355 23.9013 41.2275 24.9747 39.9582 25.796C38.6888 26.5987 37.2608 27 35.6742 27ZM40.6302 20.392C41.0968 19.272 41.4515 18.124 41.6942 16.948C41.9368 15.772 42.0582 14.652 42.0582 13.588C42.0582 12.5053 41.7875 11.7307 41.2462 11.264C40.7235 10.7787 39.9022 10.536 38.7822 10.536H35.7862L32.6502 24.284H35.9822C36.9902 24.284 37.9048 23.92 38.7262 23.192C39.5475 22.4453 40.1822 21.512 40.6302 20.392ZM50.0786 20.84C50.0786 22.3147 50.3213 23.3133 50.8066 23.836C51.292 24.34 52.0946 24.592 53.2146 24.592C54.3346 24.592 55.2866 24.2467 56.0706 23.556C57.116 22.6227 57.9373 21.1947 58.5346 19.272C59.132 17.3493 59.4306 15.4547 59.4306 13.588C59.4306 12.3933 59.188 11.5347 58.7026 11.012C58.2173 10.4893 57.4146 10.228 56.2946 10.228C55.1933 10.228 54.2973 10.536 53.6066 11.152C52.524 12.1413 51.6653 13.6347 51.0306 15.632C50.396 17.6107 50.0786 19.3467 50.0786 20.84ZM58.0586 25.656C56.64 26.7573 54.9226 27.308 52.9066 27.308C50.8906 27.308 49.3786 26.8413 48.3706 25.908C47.3626 24.9747 46.8586 23.5093 46.8586 21.512C46.8586 19.0853 47.232 16.78 47.9786 14.596C48.744 12.412 49.8453 10.6947 51.2826 9.444C52.72 8.156 54.4746 7.512 56.5466 7.512C60.616 7.512 62.6506 9.444 62.6506 13.308C62.6506 15.8467 62.2586 18.236 61.4746 20.476C60.7093 22.716 59.5706 24.4427 58.0586 25.656ZM77.1579 10.676C75.1419 10.34 73.5366 10.172 72.3419 10.172C71.1472 10.172 70.2419 10.452 69.6259 11.012C69.0099 11.572 68.7019 12.356 68.7019 13.364C68.7019 13.9987 68.8792 14.4747 69.2339 14.792C69.6072 15.0907 70.4846 15.52 71.8659 16.08C73.2659 16.64 74.2272 17.2373 74.7499 17.872C75.2912 18.5067 75.5619 19.44 75.5619 20.672C75.5619 22.7813 74.9179 24.4147 73.6299 25.572C72.3606 26.7293 70.6339 27.308 68.4499 27.308C67.6099 27.308 66.7139 27.224 65.7619 27.056C64.8099 26.9067 64.0726 26.748 63.5499 26.58L62.7379 26.328L63.2419 24.06C65.3886 24.4147 67.1339 24.592 68.4779 24.592C71.0726 24.592 72.3699 23.4067 72.3699 21.036C72.3699 20.3827 72.1926 19.9067 71.8379 19.608C71.4832 19.2907 70.6339 18.8613 69.2899 18.32C67.9646 17.7787 67.0032 17.1813 66.4059 16.528C65.8272 15.856 65.5379 14.9133 65.5379 13.7C65.5379 11.852 66.1352 10.3587 67.3299 9.22C68.5246 8.08133 70.1299 7.512 72.1459 7.512C72.9859 7.512 73.8632 7.58667 74.7779 7.736C75.7112 7.88533 76.4299 8.03467 76.9339 8.184L77.7179 8.436L77.1579 10.676ZM87.5122 20.84C87.5122 22.3147 87.7549 23.3133 88.2402 23.836C88.7256 24.34 89.5282 24.592 90.6482 24.592C91.7682 24.592 92.7202 24.2467 93.5042 23.556C94.5496 22.6227 95.3709 21.1947 95.9682 19.272C96.5656 17.3493 96.8642 15.4547 96.8642 13.588C96.8642 12.3933 96.6216 11.5347 96.1362 11.012C95.6509 10.4893 94.8482 10.228 93.7282 10.228C92.6269 10.228 91.7309 10.536 91.0402 11.152C89.9576 12.1413 89.0989 13.6347 88.4642 15.632C87.8296 17.6107 87.5122 19.3467 87.5122 20.84ZM95.4922 25.656C94.0736 26.7573 92.3562 27.308 90.3402 27.308C88.3242 27.308 86.8122 26.8413 85.8042 25.908C84.7962 24.9747 84.2922 23.5093 84.2922 21.512C84.2922 19.0853 84.6656 16.78 85.4122 14.596C86.1776 12.412 87.2789 10.6947 88.7162 9.444C90.1536 8.156 91.9082 7.512 93.9802 7.512C98.0496 7.512 100.084 9.444 100.084 13.308C100.084 15.8467 99.6922 18.236 98.9082 20.476C98.1429 22.716 97.0042 24.4427 95.4922 25.656ZM114.592 10.676C112.576 10.34 110.97 10.172 109.776 10.172C108.581 10.172 107.676 10.452 107.06 11.012C106.444 11.572 106.136 12.356 106.136 13.364C106.136 13.9987 106.313 14.4747 106.668 14.792C107.041 15.0907 107.918 15.52 109.3 16.08C110.7 16.64 111.661 17.2373 112.184 17.872C112.725 18.5067 112.996 19.44 112.996 20.672C112.996 22.7813 112.352 24.4147 111.064 25.572C109.794 26.7293 108.068 27.308 105.883 27.308C105.044 27.308 104.148 27.224 103.196 27.056C102.244 26.9067 101.506 26.748 100.984 26.58L100.172 26.328L100.676 24.06C102.822 24.4147 104.568 24.592 105.912 24.592C108.506 24.592 109.804 23.4067 109.804 21.036C109.804 20.3827 109.626 19.9067 109.272 19.608C108.917 19.2907 108.068 18.8613 106.724 18.32C105.398 17.7787 104.437 17.1813 103.84 16.528C103.261 15.856 102.972 14.9133 102.972 13.7C102.972 11.852 103.569 10.3587 104.764 9.22C105.958 8.08133 107.564 7.512 109.58 7.512C110.42 7.512 111.297 7.58667 112.212 7.736C113.145 7.88533 113.864 8.03467 114.368 8.184L115.151 8.436L114.592 10.676ZM129.006 7.82L125.394 23.416C124.852 25.8613 124.218 27.392 123.49 28.008C122.762 28.6427 121.24 28.96 118.926 28.96L119.458 26.216C120.41 26.1973 121.044 26.0387 121.362 25.74C121.698 25.4227 122.006 24.6293 122.286 23.36L125.898 7.82H129.006ZM132.657 20.84C132.657 22.3147 132.899 23.3133 133.385 23.836C133.87 24.34 134.673 24.592 135.793 24.592C136.913 24.592 137.865 24.2467 138.649 23.556C139.694 22.6227 140.515 21.1947 141.113 19.272C141.71 17.3493 142.009 15.4547 142.009 13.588C142.009 12.3933 141.766 11.5347 141.281 11.012C140.795 10.4893 139.993 10.228 138.873 10.228C137.771 10.228 136.875 10.536 136.185 11.152C135.102 12.1413 134.243 13.6347 133.609 15.632C132.974 17.6107 132.657 19.3467 132.657 20.84ZM140.637 25.656C139.218 26.7573 137.501 27.308 135.485 27.308C133.469 27.308 131.957 26.8413 130.949 25.908C129.941 24.9747 129.437 23.5093 129.437 21.512C129.437 19.0853 129.81 16.78 130.557 14.596C131.322 12.412 132.423 10.6947 133.861 9.444C135.298 8.156 137.053 7.512 139.125 7.512C143.194 7.512 145.229 9.444 145.229 13.308C145.229 15.8467 144.837 18.236 144.053 20.476C143.287 22.716 142.149 24.4427 140.637 25.656ZM152.932 27.308C148.863 27.308 146.828 25.3853 146.828 21.54C146.828 18.572 147.341 15.912 148.368 13.56C149.507 11.0213 151.112 9.26667 153.184 8.296C154.323 7.77333 155.443 7.512 156.544 7.512C158.541 7.512 160.315 7.764 161.864 8.268L162.62 8.52L161.892 10.788C160.025 10.4147 158.261 10.228 156.6 10.228C155.48 10.228 154.481 10.592 153.604 11.32C152.745 12.048 152.064 12.9907 151.56 14.148C150.552 16.4627 150.048 18.936 150.048 21.568C150.048 23.584 151.131 24.592 153.296 24.592C154.043 24.592 154.752 24.5173 155.424 24.368L155.76 24.312L156.936 19.244H154.668L155.284 16.64H160.66L158.336 26.58C156.917 27.0653 155.116 27.308 152.932 27.308ZM165.989 20.84C165.989 22.3147 166.231 23.3133 166.717 23.836C167.202 24.34 168.005 24.592 169.125 24.592C170.245 24.592 171.197 24.2467 171.981 23.556C173.026 22.6227 173.847 21.1947 174.445 19.272C175.042 17.3493 175.341 15.4547 175.341 13.588C175.341 12.3933 175.098 11.5347 174.613 11.012C174.127 10.4893 173.325 10.228 172.205 10.228C171.103 10.228 170.207 10.536 169.517 11.152C168.434 12.1413 167.575 13.6347 166.941 15.632C166.306 17.6107 165.989 19.3467 165.989 20.84ZM173.969 25.656C172.55 26.7573 170.833 27.308 168.817 27.308C166.801 27.308 165.289 26.8413 164.281 25.908C163.273 24.9747 162.769 23.5093 162.769 21.512C162.769 19.0853 163.142 16.78 163.889 14.596C164.654 12.412 165.755 10.6947 167.193 9.444C168.63 8.156 170.385 7.512 172.457 7.512C176.526 7.512 178.561 9.444 178.561 13.308C178.561 15.8467 178.169 18.236 177.385 20.476C176.619 22.716 175.481 24.4427 173.969 25.656ZM193.068 10.676C191.052 10.34 189.447 10.172 188.252 10.172C187.057 10.172 186.152 10.452 185.536 11.012C184.92 11.572 184.612 12.356 184.612 13.364C184.612 13.9987 184.789 14.4747 185.144 14.792C185.517 15.0907 186.395 15.52 187.776 16.08C189.176 16.64 190.137 17.2373 190.66 17.872C191.201 18.5067 191.472 19.44 191.472 20.672C191.472 22.7813 190.828 24.4147 189.54 25.572C188.271 26.7293 186.544 27.308 184.36 27.308C183.52 27.308 182.624 27.224 181.672 27.056C180.72 26.9067 179.983 26.748 179.46 26.58L178.648 26.328L179.152 24.06C181.299 24.4147 183.044 24.592 184.388 24.592C186.983 24.592 188.28 23.4067 188.28 21.036C188.28 20.3827 188.103 19.9067 187.748 19.608C187.393 19.2907 186.544 18.8613 185.2 18.32C183.875 17.7787 182.913 17.1813 182.316 16.528C181.737 15.856 181.448 14.9133 181.448 13.7C181.448 11.852 182.045 10.3587 183.24 9.22C184.435 8.08133 186.04 7.512 188.056 7.512C188.896 7.512 189.773 7.58667 190.688 7.736C191.621 7.88533 192.34 8.03467 192.844 8.184L193.628 8.436L193.068 10.676ZM205.774 27.308C202.041 27.308 200.174 25.4693 200.174 21.792C200.174 19.0853 200.641 16.556 201.574 14.204C202.078 12.9347 202.694 11.8147 203.422 10.844C204.169 9.85467 205.102 9.052 206.222 8.436C207.342 7.82 208.584 7.512 209.946 7.512C211.197 7.512 212.541 7.69867 213.978 8.072L214.678 8.268L213.95 10.62C212.681 10.3587 211.346 10.228 209.946 10.228C208.546 10.228 207.342 10.8067 206.334 11.964C205.326 13.1213 204.58 14.5493 204.094 16.248C203.628 17.9467 203.394 19.72 203.394 21.568C203.394 23.584 204.318 24.592 206.166 24.592C207.342 24.592 208.64 24.48 210.058 24.256L210.702 24.172L210.478 26.636C208.78 27.084 207.212 27.308 205.774 27.308ZM217.122 20.84C217.122 22.3147 217.364 23.3133 217.85 23.836C218.335 24.34 219.138 24.592 220.258 24.592C221.378 24.592 222.33 24.2467 223.114 23.556C224.159 22.6227 224.98 21.1947 225.578 19.272C226.175 17.3493 226.474 15.4547 226.474 13.588C226.474 12.3933 226.231 11.5347 225.746 11.012C225.26 10.4893 224.458 10.228 223.338 10.228C222.236 10.228 221.34 10.536 220.65 11.152C219.567 12.1413 218.708 13.6347 218.074 15.632C217.439 17.6107 217.122 19.3467 217.122 20.84ZM225.102 25.656C223.683 26.7573 221.966 27.308 219.95 27.308C217.934 27.308 216.422 26.8413 215.414 25.908C214.406 24.9747 213.902 23.5093 213.902 21.512C213.902 19.0853 214.275 16.78 215.022 14.596C215.787 12.412 216.888 10.6947 218.326 9.444C219.763 8.156 221.518 7.512 223.59 7.512C227.659 7.512 229.694 9.444 229.694 13.308C229.694 15.8467 229.302 18.236 228.518 20.476C227.752 22.716 226.614 24.4427 225.102 25.656ZM230.257 27L234.709 7.82H239.665L240.225 22.772L247.701 7.82H252.741L248.317 27H245.181L249.017 10.536H248.793L240.981 26.216H237.957L237.369 10.536H237.173L233.393 27H230.257ZM268.278 27V22.996H262.006L260.074 27H256.938L265.982 7.82H271.554L271.386 27H268.278ZM267.802 10.536L263.21 20.252H268.362L268.502 10.536H267.802ZM274.876 10.536L275.52 7.82H287.896L287.252 10.536H282.604L278.796 27H275.688L279.468 10.536H274.876ZM293.831 5.328L293.579 2.948L300.523 0.371999L300.803 3.088L293.831 5.328ZM285.683 27L290.107 7.82H301.111L300.467 10.536H292.599L291.367 15.968H297.695L297.051 18.712H290.751L289.463 24.284H297.359L296.715 27H285.683ZM309.923 9.22C311.64 8.548 313.414 8.212 315.243 8.212C317.091 8.212 318.444 8.52933 319.303 9.164C320.162 9.79867 320.591 10.7693 320.591 12.076C320.591 13.3827 320.302 14.428 319.723 15.212C319.163 15.996 318.267 16.668 317.035 17.228C317.744 17.6013 318.248 18.0493 318.547 18.572C318.846 19.076 318.995 19.8227 318.995 20.812C318.995 22.772 318.276 24.3493 316.839 25.544C315.402 26.72 313.535 27.308 311.239 27.308C310.418 27.308 309.54 27.224 308.607 27.056C307.692 26.9067 306.974 26.748 306.451 26.58L305.667 26.328L306.339 24.144C308.43 24.4613 310.11 24.62 311.379 24.62C312.667 24.62 313.731 24.2933 314.571 23.64C315.411 22.9867 315.831 22.0907 315.831 20.952C315.831 20.28 315.616 19.7853 315.187 19.468C314.758 19.132 314.048 18.9547 313.059 18.936L309.475 18.908L310.063 16.556L313.675 16.416C314.515 16.3973 315.346 16.0427 316.167 15.352C316.988 14.6613 317.399 13.8587 317.399 12.944C317.399 11.5627 316.466 10.872 314.599 10.872C313.218 10.872 311.799 10.984 310.343 11.208L309.615 11.32L309.923 9.22ZM330.883 8.212C334.784 8.212 336.735 10.1253 336.735 13.952C336.735 17.7787 335.923 20.9613 334.299 23.5C332.694 26.0387 330.631 27.308 328.111 27.308C324.228 27.308 322.287 25.4133 322.287 21.624C322.287 19.1413 322.642 16.8827 323.351 14.848C324.06 12.8133 325.068 11.1987 326.375 10.004C327.7 8.80933 329.203 8.212 330.883 8.212ZM333.543 14.596C333.543 13.252 333.328 12.3 332.899 11.74C332.488 11.1613 331.77 10.872 330.743 10.872C329.716 10.872 328.774 11.46 327.915 12.636C327.075 13.7933 326.459 15.1467 326.067 16.696C325.675 18.2267 325.479 19.6547 325.479 20.98C325.479 22.3053 325.684 23.248 326.095 23.808C326.524 24.3493 327.243 24.62 328.251 24.62C329.278 24.62 330.211 24.06 331.051 22.94C331.91 21.8013 332.535 20.4667 332.927 18.936C333.338 17.3867 333.543 15.94 333.543 14.596ZM342.295 13.476C342.668 13.476 342.958 13.3173 343.163 13C343.387 12.664 343.583 12.1693 343.751 11.516C343.919 10.844 344.003 10.34 344.003 10.004C344.003 9.5 343.788 9.248 343.359 9.248C343.004 9.248 342.715 9.416 342.491 9.752C342.267 10.0693 342.071 10.5547 341.903 11.208C341.735 11.8427 341.651 12.328 341.651 12.664C341.651 13.2053 341.866 13.476 342.295 13.476ZM338.795 26.832L349.883 6.98L351.759 7.624L340.671 27.476L338.795 26.832ZM339.579 11.348C340.232 8.69733 341.651 7.372 343.835 7.372C345.478 7.372 346.299 8.14667 346.299 9.696C346.299 10.1813 346.224 10.732 346.075 11.348C345.403 14.036 343.994 15.38 341.847 15.38C340.802 15.38 340.083 15.044 339.691 14.372C339.467 13.9987 339.355 13.56 339.355 13.056C339.355 12.5333 339.43 11.964 339.579 11.348ZM351.059 22.968C350.387 25.656 348.978 27 346.831 27C345.188 27 344.367 26.2067 344.367 24.62C344.367 24.1347 344.442 23.584 344.591 22.968C345.244 20.3173 346.654 18.992 348.819 18.992C350.462 18.992 351.283 19.7667 351.283 21.316C351.283 21.8013 351.208 22.352 351.059 22.968ZM348.987 21.624C348.987 21.12 348.772 20.868 348.343 20.868C347.988 20.868 347.699 21.036 347.475 21.372C347.251 21.6893 347.055 22.184 346.887 22.856C346.719 23.5093 346.635 24.004 346.635 24.34C346.635 24.844 346.85 25.096 347.279 25.096C347.634 25.096 347.923 24.928 348.147 24.592C348.371 24.256 348.567 23.7613 348.735 23.108C348.903 22.4547 348.987 21.96 348.987 21.624ZM365.795 27H358.991L363.443 7.82H369.519C373.439 7.82 375.399 9.74267 375.399 13.588C375.399 16.892 374.634 19.888 373.103 22.576C372.357 23.9013 371.349 24.9747 370.079 25.796C368.81 26.5987 367.382 27 365.795 27ZM370.751 20.392C371.218 19.272 371.573 18.124 371.815 16.948C372.058 15.772 372.179 14.652 372.179 13.588C372.179 12.5053 371.909 11.7307 371.367 11.264C370.845 10.7787 370.023 10.536 368.903 10.536H365.907L362.771 24.284H366.103C367.111 24.284 368.026 23.92 368.847 23.192C369.669 22.4453 370.303 21.512 370.751 20.392ZM375.972 27L380.396 7.82H391.4L390.756 10.536H382.888L381.656 15.968H387.984L387.34 18.712H381.04L379.752 24.284H387.648L387.004 27H375.972ZM402.928 27H396.124L400.576 7.82H406.652C410.572 7.82 412.532 9.74267 412.532 13.588C412.532 16.892 411.767 19.888 410.236 22.576C409.489 23.9013 408.481 24.9747 407.212 25.796C405.943 26.5987 404.515 27 402.928 27ZM407.884 20.392C408.351 19.272 408.705 18.124 408.948 16.948C409.191 15.772 409.312 14.652 409.312 13.588C409.312 12.5053 409.041 11.7307 408.5 11.264C407.977 10.7787 407.156 10.536 406.036 10.536H403.04L399.904 24.284H403.236C404.244 24.284 405.159 23.92 405.98 23.192C406.801 22.4453 407.436 21.512 407.884 20.392ZM413.105 27L417.529 7.82H428.533L427.889 10.536H420.021L418.789 15.968H425.117L424.473 18.712H418.173L416.885 24.284H424.781L424.137 27H413.105ZM441.049 10.676C439.033 10.34 437.427 10.172 436.233 10.172C435.038 10.172 434.133 10.452 433.517 11.012C432.901 11.572 432.593 12.356 432.593 13.364C432.593 13.9987 432.77 14.4747 433.125 14.792C433.498 15.0907 434.375 15.52 435.757 16.08C437.157 16.64 438.118 17.2373 438.641 17.872C439.182 18.5067 439.453 19.44 439.453 20.672C439.453 22.7813 438.809 24.4147 437.521 25.572C436.251 26.7293 434.525 27.308 432.341 27.308C431.501 27.308 430.605 27.224 429.653 27.056C428.701 26.9067 427.963 26.748 427.441 26.58L426.629 26.328L427.133 24.06C429.279 24.4147 431.025 24.592 432.369 24.592C434.963 24.592 436.261 23.4067 436.261 21.036C436.261 20.3827 436.083 19.9067 435.729 19.608C435.374 19.2907 434.525 18.8613 433.181 18.32C431.855 17.7787 430.894 17.1813 430.297 16.528C429.718 15.856 429.429 14.9133 429.429 13.7C429.429 11.852 430.026 10.3587 431.221 9.22C432.415 8.08133 434.021 7.512 436.037 7.512C436.877 7.512 437.754 7.58667 438.669 7.736C439.602 7.88533 440.321 8.03467 440.825 8.184L441.609 8.436L441.049 10.676ZM447.603 27.308C443.869 27.308 442.003 25.4693 442.003 21.792C442.003 19.0853 442.469 16.556 443.403 14.204C443.907 12.9347 444.523 11.8147 445.251 10.844C445.997 9.85467 446.931 9.052 448.051 8.436C449.171 7.82 450.412 7.512 451.775 7.512C453.025 7.512 454.369 7.69867 455.807 8.072L456.507 8.268L455.779 10.62C454.509 10.3587 453.175 10.228 451.775 10.228C450.375 10.228 449.171 10.8067 448.163 11.964C447.155 13.1213 446.408 14.5493 445.923 16.248C445.456 17.9467 445.223 19.72 445.223 21.568C445.223 23.584 446.147 24.592 447.995 24.592C449.171 24.592 450.468 24.48 451.887 24.256L452.531 24.172L452.307 26.636C450.608 27.084 449.04 27.308 447.603 27.308ZM458.95 20.84C458.95 22.3147 459.192 23.3133 459.678 23.836C460.163 24.34 460.966 24.592 462.086 24.592C463.206 24.592 464.158 24.2467 464.942 23.556C465.987 22.6227 466.808 21.1947 467.406 19.272C468.003 17.3493 468.302 15.4547 468.302 13.588C468.302 12.3933 468.059 11.5347 467.574 11.012C467.088 10.4893 466.286 10.228 465.166 10.228C464.064 10.228 463.168 10.536 462.478 11.152C461.395 12.1413 460.536 13.6347 459.902 15.632C459.267 17.6107 458.95 19.3467 458.95 20.84ZM466.93 25.656C465.511 26.7573 463.794 27.308 461.778 27.308C459.762 27.308 458.25 26.8413 457.242 25.908C456.234 24.9747 455.73 23.5093 455.73 21.512C455.73 19.0853 456.103 16.78 456.85 14.596C457.615 12.412 458.716 10.6947 460.154 9.444C461.591 8.156 463.346 7.512 465.418 7.512C469.487 7.512 471.522 9.444 471.522 13.308C471.522 15.8467 471.13 18.236 470.346 20.476C469.58 22.716 468.442 24.4427 466.93 25.656ZM472.085 27L476.537 7.82H481.661L483.509 23.724H483.929L487.541 7.82H490.565L486.141 27H481.241L479.225 10.9H478.805L475.053 27H472.085ZM492.15 10.536L492.794 7.82H505.17L504.526 10.536H499.878L496.07 27H492.962L496.742 10.536H492.15ZM506.993 20.84C506.993 22.3147 507.235 23.3133 507.721 23.836C508.206 24.34 509.009 24.592 510.129 24.592C511.249 24.592 512.201 24.2467 512.985 23.556C514.03 22.6227 514.851 21.1947 515.449 19.272C516.046 17.3493 516.345 15.4547 516.345 13.588C516.345 12.3933 516.102 11.5347 515.617 11.012C515.131 10.4893 514.329 10.228 513.209 10.228C512.107 10.228 511.211 10.536 510.521 11.152C509.438 12.1413 508.579 13.6347 507.945 15.632C507.31 17.6107 506.993 19.3467 506.993 20.84ZM514.973 25.656C513.554 26.7573 511.837 27.308 509.821 27.308C507.805 27.308 506.293 26.8413 505.285 25.908C504.277 24.9747 503.773 23.5093 503.773 21.512C503.773 19.0853 504.146 16.78 504.893 14.596C505.658 12.412 506.759 10.6947 508.197 9.444C509.634 8.156 511.389 7.512 513.461 7.512C517.53 7.512 519.565 9.444 519.565 13.308C519.565 15.8467 519.173 18.236 518.389 20.476C517.623 22.716 516.485 24.4427 514.973 25.656Z" fill="white"/>
</svg>
